<?xml version="1.0" encoding="UTF-8" standalone="no"?>
<svg
   xmlns:dc="http://purl.org/dc/elements/1.1/"
   xmlns:cc="http://creativecommons.org/ns#"
   xmlns:rdf="http://www.w3.org/1999/02/22-rdf-syntax-ns#"
   xmlns:svg="http://www.w3.org/2000/svg"
   xmlns="http://www.w3.org/2000/svg"
   viewBox="0 0 268.36267 190.10933"
   height="190.10933"
   width="268.36267"
   xml:space="preserve"
   id="svg2"
   version="1.1"><metadata
     id="metadata8"><rdf:RDF><cc:Work
         rdf:about=""><dc:format>image/svg+xml</dc:format><dc:type
           rdf:resource="http://purl.org/dc/dcmitype/StillImage" /></cc:Work></rdf:RDF></metadata><defs
     id="defs6"><clipPath
       id="clipPath18"
       clipPathUnits="userSpaceOnUse"><path
         id="path16"
         d="M 0,142.582 H 201.272 V 0 H 0 Z" /></clipPath></defs><g
     transform="matrix(1.3333333,0,0,-1.3333333,0,190.10933)"
     id="g10"><g
       id="g12"><g
         clip-path="url(#clipPath18)"
         id="g14"><g
           transform="translate(120.4814,106.364)"
           id="g20"><path
             id="path22"
             style="fill:#45c0ad;fill-opacity:1;fill-rule:evenodd;stroke:none"
             d="m 0,0 c 0.654,-0.17 -1.43,0.725 -1.016,-0.115 -0.365,0.15 -0.636,0.386 -1.158,0.396 -0.484,-0.226 0.391,-0.728 -0.041,-0.838 -0.193,0.428 -0.306,-0.709 -0.867,-0.459 -0.309,1.032 -1.996,0.746 -2.799,1.155 0.131,-0.026 0.479,-0.58 0.141,-0.512 -0.426,0.516 -0.645,0.178 -1.174,0.062 0.328,0.387 0.594,0.915 -0.107,1.184 -0.192,-0.609 -0.239,-2.527 -0.981,-2.641 0.047,0.414 -0.051,0.702 -0.291,0.856 0.244,-0.588 -0.045,-0.502 -0.379,-0.822 0.404,-1.635 -2.633,-0.981 -3.461,-1.838 1.063,0.123 1.66,0.072 2.154,-0.617 -0.521,-0.071 -1.189,0.019 -1.21,-0.61 0.716,0.287 0.955,0.235 1.503,-0.246 -0.181,-0.262 -0.47,-0.363 -0.681,-0.133 0.082,-0.301 -0.254,-0.976 0.115,-1.015 0.689,0.293 0.467,-0.588 0.953,-1.061 0.979,-0.178 1.406,1.26 1.961,2.086 0.393,-0.127 0.768,-0.268 0.803,-0.717 -0.402,-0.084 -0.793,-0.183 -0.873,-0.627 -0.012,-0.593 0.574,0.328 0.494,-0.193 0.131,-0.617 -0.762,-0.102 -0.705,-0.637 0.81,-0.027 2.265,0.324 2.578,1.043 1.068,-1.488 2.062,-3.045 2.949,-4.697 -0.01,0.723 0.293,1.098 0.586,1.484 -0.363,1.289 -0.664,3.147 -0.109,4.379 1.816,0.172 1.492,-0.799 3.152,-0.838 0.147,-1.14 0.139,-2.156 -0.642,-2.658 1.326,-0.969 0.154,-2.928 -0.221,-4.195 1.496,0.232 0.758,2.949 1.713,3.781 0.185,-0.258 0.621,-0.295 0.812,-0.549 0.258,-1.238 -0.582,-2.187 -0.635,-2.49 0.12,0.48 0.249,-0.27 0.495,-0.193 0.326,1.414 0.66,2.818 2.013,3.091 0.096,-0.552 0.805,-0.554 1.131,-0.9 -0.896,-1.434 -1.699,-2.969 -2.904,-4.055 1.476,0.608 1.935,2.346 3.037,3.373 -0.01,-0.166 0.125,-0.205 0.15,-0.343 -0.636,-0.952 -1.543,-1.602 -1.996,-2.756 1.313,0.582 1.821,3.453 3.496,2.508 -0.394,-0.213 -0.679,-0.545 -1.05,-0.786 0.781,0.022 0.99,0.678 1.722,0.752 0.399,-0.246 -0.328,-0.49 0.133,-0.681 0.057,0.146 0.492,0.713 0.52,0.31 -0.135,-0.509 -1.397,-0.689 -1.067,-1.123 0.797,0.475 1.656,0.883 2.586,1.211 0.006,-0.418 -0.291,-0.506 -0.379,-0.822 0.395,0.031 0.742,0.322 0.83,-0.211 -0.222,0.01 -0.168,-0.285 -0.351,-0.318 -0.414,0.14 -0.682,0.203 -1.016,-0.116 0.365,0.012 0.525,-0.164 0.477,-0.529 0.398,-0.09 0.379,0.289 0.847,0.123 -0.636,-0.793 -1.09,-1.074 -0.424,-1.66 -0.599,-0.223 -1.388,-0.234 -1.722,-0.75 0.691,0.197 1.572,0.219 2.191,0.053 -0.771,0.168 -0.267,-0.627 -0.539,-0.645 -0.931,0.336 -2.074,0.194 -2.81,0.988 0.201,-1.06 -0.76,0.165 -0.856,-0.291 0.262,-0.177 0.363,-0.466 0.133,-0.679 0.336,0.168 0.863,0.033 0.494,-0.196 0.006,0.094 -0.125,0.2 -0.168,0.008 0.463,0.053 2.533,-0.465 1.803,-0.935 0.39,-0.073 0.615,-0.297 1.166,-0.229 0.098,0.621 -0.793,0.354 -0.795,0.883 1.057,0.453 1.543,-0.223 2.199,0.221 0.293,-0.055 0.367,-0.309 0.301,-0.688 -0.168,0.008 -0.336,0.018 -0.504,0.026 0.455,-1.024 -0.012,-1.709 0.043,-2.358 -0.311,-0.01 -1.354,0.469 -1.006,0.053 1.041,-0.637 -1.226,-0.227 -0.803,0.715 -0.519,0.045 -0.935,-0.028 -1.193,-0.274 0.418,0.002 0.816,-0.011 0.82,-0.379 0.043,-0.636 -0.783,-0.314 -1.041,-0.619 0.182,-0.593 1.241,-1.144 0.92,-1.73 0.211,0.64 1.225,0.027 1.324,-0.406 -0.507,0.089 -0.318,-0.596 -0.707,-0.637 0.436,0.107 0.739,-0.697 0.999,-0.221 -0.204,0.031 -0.393,0.072 -0.319,0.354 0.303,-0.028 1.274,-0.684 0.998,-0.221 -0.367,-0.01 -0.525,0.166 -0.474,0.529 0.75,-0.068 1.005,-0.582 1.464,-0.918 -0.806,0.133 -0.646,-0.107 -0.363,-0.486 -0.32,-0.143 -0.533,0.533 -0.67,0.035 0.297,-0.209 0.545,-0.467 0.805,-0.713 -1.076,0.121 -1.568,0.049 -2.5,0.467 0.033,-0.332 -0.244,-0.32 -0.361,-0.486 0.554,-0.022 1.285,-0.891 0.617,-1.043 -0.182,0.086 -0.832,0.789 -0.487,0.363 -0.015,-0.334 0.448,-0.236 0.301,-0.689 -1.025,0.07 -1.857,-0.604 -2.703,-0.196 0.152,-0.609 0.133,-1.373 0.408,-1.871 0.289,-0.111 0.996,0.152 0.998,-0.221 -0.416,0.045 -0.814,0.075 -0.857,-0.291 0.301,-0.349 0.789,-0.123 1.176,-0.062 0.097,-0.711 0.857,-0.826 0.927,-1.563 -0.39,-1.357 -0.878,-0.505 -1.74,-1.087 0.018,0.298 0.965,0.437 0.379,0.822 -0.099,-0.422 -0.74,-0.242 -0.873,-0.627 -0.928,0.658 -1.055,2.035 -1.521,3.107 0.166,0.172 0.623,0.022 0.531,0.479 -0.67,-0.563 -2.102,2.619 -0.848,-0.125 0.045,-0.467 -0.635,-0.125 -0.697,-0.469 0.279,-0.014 0.558,-0.029 0.838,-0.043 -0.049,-0.416 0.236,-0.533 0.291,-0.857 -0.319,-0.442 -0.979,0.595 -1.342,0.07 0.383,-0.154 0.924,-0.586 1.334,-0.238 0.139,-0.512 0.555,-0.78 0.424,-1.537 -0.848,-0.075 -0.223,-0.157 -1.024,-0.282 0.346,0.297 0.139,0.803 -0.468,0.698 0.351,-0.383 0.293,-1.352 -0.256,-1.67 0.043,0.519 -0.028,0.935 -0.274,1.193 -0.435,-0.389 0.084,-0.734 -0.07,-1.344 -0.215,0.002 -0.246,-0.203 -0.514,-0.14 0.244,0.476 0.274,1.173 -0.088,1.519 -0.281,-0.396 -0.742,2.434 -1,3.418 -0.203,0.779 0.096,1.276 -0.166,0.008 0.129,-0.201 0.198,-0.461 0.124,-0.848 -0.292,0.03 -0.526,-0.009 -0.68,-0.133 0.068,-0.548 -0.156,-0.773 -0.231,-1.166 0.539,0.166 0.395,-0.285 0.655,-0.371 0.105,0.241 -0.151,0.879 0.213,0.83 1.406,-1.412 -0.598,-3.357 -1.096,-1.625 -0.432,-0.23 -0.291,-1.095 -0.742,-1.306 -0.041,0.551 -0.727,2.832 -0.063,2.023 -0.08,0.299 0.256,0.975 -0.115,1.014 -0.049,-0.18 -0.297,-0.387 -0.344,-0.149 -0.117,0.444 0.557,0.895 0.063,1.174 -0.202,-1.222 -0.856,-2.006 -1.034,-3.648 -0.416,0.047 -0.812,0.074 -0.855,-0.291 0.537,-0.201 0.332,-0.444 0.838,-0.045 -0.029,-0.291 0.01,-0.524 0.133,-0.68 -0.895,-0.285 -0.108,-1.006 -0.75,-1.474 0.019,-0.586 0.453,-0.01 0.486,-0.362 -0.242,-0.304 -0.178,-0.754 0.105,-1.183 0.307,0.064 1.42,0.535 2.014,-0.106 -0.23,-0.099 -0.33,-0.342 -0.371,-0.654 0.834,-0.213 1.451,-1.459 2.297,-1.131 -0.387,0.346 -1.065,0.43 -1.123,1.068 0.791,-0.388 1.611,-1.367 1.838,-0.263 0.07,-0.203 0.158,-0.389 0.31,-0.522 0.625,0.508 -0.631,0.77 -0.107,1.184 0.348,-0.733 0.404,0.17 0.857,0.293 0.817,-0.592 0.942,-0.871 1.598,-1.6 0.268,0.989 1.18,-0.775 1.678,-0.088 -0.287,0.383 -0.782,0.577 -1.129,0.901 0.326,-0.067 0.344,0.211 0.519,0.31 0.426,-0.172 0.793,-0.31 1.016,0.114 -0.654,0.166 -0.875,-0.028 -1.166,0.23 -0.004,0.418 0.125,0.693 0.381,0.822 0.984,-0.425 -0.262,-0.218 -0.028,-0.504 1.348,-0.22 2.145,0.034 2.668,-0.476 0.514,0.517 -0.558,0.697 -0.115,1.015 0.184,-0.283 1.031,-0.666 1.174,-0.062 -0.703,-0.098 -0.603,0.523 -0.971,0.725 0.766,0.201 1.287,-0.639 1.668,-0.256 -0.379,0.3 0.061,-0.018 0.338,-0.018 -0.166,0.539 0.283,0.395 0.369,0.654 -0.369,0.307 -0.511,0.819 -0.777,1.219 0.48,-0.06 0.854,-0.002 1.023,0.283 -0.212,0.18 -0.613,0.192 -0.644,0.537 0.894,0.116 1.74,-0.185 2.033,0.231 -0.301,0.318 -0.754,0.496 -0.963,0.893 0.809,0.244 1.295,-0.041 2.182,-0.116 0.346,0.606 -0.563,0.969 0.715,0.805 0.209,0.615 -0.326,0.561 -0.459,0.865 0.117,0.285 0.795,-0.054 0.855,0.291 -0.279,0.444 -1.051,-0.342 -1.158,0.397 0.748,-0.489 0.639,0.756 1.389,0.769 -0.541,-0.506 0.601,-0.367 0.67,-0.035 -0.188,0.047 -0.252,0.201 -0.319,0.354 0.801,0.199 1.836,0.037 2.49,-0.635 -0.123,-1.254 0.387,-2.117 1.522,-3.11 -0.529,0.987 -1.141,1.928 -1.018,3.083 0.672,-0.094 0.487,0.765 0.893,0.962 -0.598,-0.482 -1.084,0.364 -1.342,0.071 0.131,-0.026 0.479,-0.58 0.141,-0.512 -0.418,-0.004 -0.694,0.123 -0.823,0.379 0.208,0.01 0.401,0.029 0.354,0.318 -0.488,0.192 -0.814,0.282 -0.988,0.389 0.351,0.031 -0.227,0.467 0.361,0.486 0.129,-0.258 0.529,-0.271 0.822,-0.381 -0.146,0.936 -0.599,1.575 -1.22,2.42 0.515,0.299 0.816,-0.267 1.025,0.284 -0.25,0.042 -0.623,-0.028 -0.662,0.203 0.683,-0.086 -0.016,0.234 0.203,0.662 0.248,0.08 0.855,-0.24 0.848,0.123 -0.141,0.353 -0.858,0.189 -0.805,0.717 1,0.257 1.012,0.857 1.768,1.589 -0.538,0.223 -1.061,-0.459 -1.344,0.071 0.4,-0.09 0.381,0.287 0.847,0.123 -0.132,0.842 -1.195,0.844 -1.607,1.431 0.432,-0.197 1.02,-0.255 1.668,-0.255 -0.15,0.65 -0.416,0.548 0.213,0.83 -0.42,0.261 -0.93,0.443 -0.955,1.058 0.086,0.321 0.658,0.1 0.539,0.645 -0.522,0.008 -1.012,0.043 -1.324,0.406 0.765,0.51 1.611,0.471 0.213,0.83 0.166,0.289 0.63,0.246 0.705,0.637 -0.842,-0.1 -1.791,-0.354 -1.987,0.609 0.688,-0.367 0.778,0.694 0.219,0.998 0.582,0.043 0.938,-0.115 1.334,-0.238 0.176,0.531 -0.539,0.26 -0.467,0.697 0.754,-0.01 1.266,0.252 1.555,0.76 -0.701,-0.063 -1.635,0.145 -0.813,0.547 -1.003,0.164 -1.302,0.246 -1.998,0.441 0.432,0.233 0.852,0.477 1.379,0.602 -0.224,0.799 0.168,0.551 0.237,1.334 -0.682,-0.02 -1.834,-0.418 -2.358,-0.045 0.434,0.053 0.783,0.195 1.033,0.451 -0.285,0.221 -0.459,0.545 -0.802,0.715 0.107,0.408 0.105,0.928 0.572,1.316 -0.602,0.127 -1.416,-0.425 -1.846,0.098 0.121,0.279 0.522,0.248 0.699,0.467 -0.423,0.545 -0.662,-0.406 -1.007,0.053 -0.039,-0.786 -0.549,-1.047 -1.237,-1.114 -0.164,0.539 0.285,0.395 0.371,0.655 -0.617,0.212 -0.5,-0.391 -1.023,-0.284 0.021,0.803 0.568,1.026 1.076,1.289 0.008,-0.205 0.029,-0.398 0.319,-0.353 -0.032,0.57 0.742,0.244 1.033,0.451 -0.66,0.803 1.045,0.479 0.715,0.805 -0.832,-0.057 -0.997,0.488 -1.829,0.431 -0.203,0.543 -0.005,0.565 0.063,1.174 -0.441,-0.219 -0.92,-0.398 -1.219,-0.777 0.389,-0.203 0.356,-0.844 -0.053,-1.006 -0.439,0.902 -1.125,-0.359 -1.865,-0.238 0.069,0.34 0.36,0.429 0.541,0.644 -0.834,0.215 -1.386,-0.654 -2.041,-0.398 0.485,0.408 1.426,0.31 1.731,0.92 -0.53,0.342 -1.576,-1.041 -2.217,-0.559 0.609,0.213 1.111,0.543 1.562,0.928 -0.63,-0.014 -1.416,-0.785 -2.031,-0.229 0.223,-0.037 0.94,0.215 0.522,0.309 -0.45,-0.033 -0.61,-0.387 -1.034,-0.451 0.159,0.89 1.116,0.892 1.43,1.607 -1.301,-0.037 -2.074,-1.597 -2.939,-1.527 0.138,0.162 0.836,0.582 0.379,0.82 C 8.01,-3.33 7.387,-3.646 6.695,-3.885 c 0.53,0.793 1.276,2.028 2.438,1.555 0.568,1.113 1.814,0.551 2.924,1.193 -2.934,0.494 -4.565,-2.217 -6.961,-1.15 0.539,0.473 2.371,0.443 2.086,1.238 -0.452,-0.406 -0.916,-0.621 -1.53,-0.258 0.162,0.356 0.873,0.098 1.035,0.452 -0.97,0.271 -2.068,0.238 -2.88,-0.354 0.207,0.242 0.627,0.676 0.045,0.838 C 3.52,-0.592 3.102,-0.723 2.65,-0.812 2.678,-0.016 4.09,-0.754 4.045,0.125 2.957,-0.236 1.428,-0.246 0.645,-0.539 0.959,-0.064 1.299,0.234 1.043,0.617 0.85,0.348 0.344,-0.484 0,0" /></g><g
           transform="translate(168.3291,106.1765)"
           id="g24"><path
             id="path26"
             style="fill:#45c0ad;fill-opacity:1;fill-rule:evenodd;stroke:none"
             d="M 0,0 C -2.555,1.43 -4.201,3.68 -8.391,3.637 -7.891,2.699 -6.125,2.906 -4.732,2.773 -3.248,1.871 -1.521,0.336 0,0 m 5.955,-1.684 c -1.195,0.356 -1.793,0.18 -3.029,-0.007 0.463,0.373 0.98,0.685 1.881,0.574 l 0.035,0.67 C 3.736,-0.994 2.799,-0.236 1.672,0.057 2.217,0.408 2.502,0.996 2.943,1.84 2.555,1.682 2.186,1.498 1.9,1.223 1.705,1.678 1.033,1.455 1.441,2.088 1.037,2.006 1.127,1.371 0.408,1.637 0.037,0.949 0.588,0.217 -0.174,0.152 -0.158,-0.045 0.125,-0.006 0.32,-0.041 1.525,-1.461 2.91,-2.719 5.559,-2.84 5.871,-2.727 5.467,-2.654 5.232,-2.654 4.578,-2.496 4.033,-2.24 3.412,-2.055 3.73,-1.344 5.369,-2.1 5.955,-1.684 M 9.787,22.389 C 8.742,23.098 8.354,22.426 7.254,22.186 6.572,22.318 6.5,23 5.787,23.104 6.209,22.809 6.074,21.493 5.045,21.796 4.709,21.483 6.387,21.626 6.883,21.532 6.42,19.737 5.857,18.052 4.949,16.754 c 0.78,0.051 0.977,1.34 1.28,1.952 0.437,0.88 1.066,1.66 1.156,2.799 1.025,-0.44 1.554,-0.155 2.693,0.029 0.131,0.564 -1.17,0.537 -0.291,0.855 m 3.572,-9.623 c -0.421,0.154 -0.037,1.033 -0.619,1.041 0.625,-2.526 -2.166,-1.854 -3.074,-0.848 0.725,0.178 0.297,0.254 0.211,0.83 0.559,-0.146 0.568,0.317 0.865,0.46 -0.588,0.003 -1.07,0.101 -1.324,0.406 0.342,0.789 0.686,1.42 0.451,2.164 C 9.779,16.094 8.648,16.012 8.51,16.553 7.984,16.665 7.834,16.222 7.502,16.606 7.406,16.042 8.23,16.303 7.953,15.573 6.184,15.542 4.266,14.526 2.91,15.669 2.811,14.871 2.139,13.705 0.791,13.762 0.635,13.195 1.395,13.451 1.426,13.055 1.137,12.666 0.768,12.363 0.525,11.924 c 0.827,0.195 0.422,0.39 0.662,-0.203 0.168,0.283 0.641,0.431 0.672,-0.035 C 1.264,11.045 0.83,10.225 0.234,9.582 c -0.591,0.715 -0.73,0.523 -1.121,1.07 C -1.02,9.826 -1.018,8.174 -1.885,7.676 -1.361,7.566 -1.479,8.17 -0.859,7.957 -0.457,7.686 -0.268,7.119 -0.268,6.412 0.029,6.613 -0.213,7.416 0.287,7.393 0.525,7.34 0.557,7.102 0.773,7.031 0.699,7.803 0.619,7.73 1.305,7.508 1.281,7.826 1.512,7.869 1.506,8.17 0.568,8.242 1.201,8.74 0.367,8.902 1.164,9.379 1.463,10.406 2.318,10.82 2.041,9.805 2.998,9.027 2.168,7.967 2.842,8.379 2.83,7.918 3.352,8.074 c 0.185,0.979 -0.645,3.067 0.812,2.649 0.162,0.431 -0.459,0.947 0.063,1.175 0.978,-0.638 0.521,0.741 2.029,0.231 0.14,0.605 -0.787,0.25 -0.803,0.715 1.734,0.527 3.617,-0.334 3.613,-1.705 0.436,0.107 0.959,0.119 1.202,0.443 -0.149,0.188 -0.618,0.084 -0.479,0.529 0.822,-0.218 1.967,-0.148 2.316,-0.795 -0.841,0.338 -1.449,-4.119 -0.972,-2.472 0.492,0.281 0.463,1.142 1.078,1.289 0.346,-0.067 -0.273,-0.44 0.309,-0.52 0.087,1.356 1.388,2.514 1.822,3.356 -0.186,-0.225 -0.862,0.094 -0.983,-0.203 m -21.318,9.1 c -1.453,-1.453 -4.354,0.738 -5.289,-1.405 0.986,-0.017 1.984,-0.024 1.615,-1.263 0.66,0.156 1.533,0.074 2.041,0.398 0.707,-0.166 1.434,-1.155 1.969,-0.945 -0.496,0.138 0.18,0.351 0.037,0.672 -0.404,0.277 -0.98,0.397 -1.131,0.9 0.313,0.658 1.196,0.686 1.58,1.264 -0.648,-0.21 -0.299,0.478 -0.822,0.379 m -8.266,-41.173 c -0.316,0.055 -0.38,-0.17 -0.679,-0.132 0.078,0.742 -0.442,0.945 -0.619,1.041 -0.006,0.191 0.257,0.25 0.017,0.336 -0.599,-0.385 0.498,-1.026 0.106,-1.184 -0.389,0.258 -0.846,-0.375 -0.397,-1.156 -1.101,-0.077 -1.793,-0.614 -2.896,-0.69 -0.176,0 -0.143,-0.209 0.16,-0.178 0.974,0.137 2.279,0.735 3.054,0.514 -0.128,0.617 0.735,0.133 0.866,0.459 -0.442,-0.777 0.566,-1.471 0.724,-2.224 0.196,0.761 -0.377,0.834 -0.256,1.527 0.237,-0.053 0.268,-0.291 0.487,-0.361 -0.485,0.554 0.181,1.08 0.22,0.998 -0.14,0.306 -1.519,-0.09 -0.787,1.05 m 4.547,6.493 c -0.043,0.013 0.19,0.318 0.186,0.326 -0.238,0.545 -3.285,0.33 -4.196,0.22 -0.199,0.432 0.692,0.491 0.204,0.663 -0.368,-0.362 -0.959,-0.475 -1.545,-0.592 -0.295,0.373 -0.219,1.082 -0.602,1.377 0.102,-0.903 0.299,-1.301 0.231,-2.03 -0.381,0.067 -0.633,-0.009 -0.69,-0.302 0.445,-0.395 0.379,-0.942 0.592,-1.545 0.4,2.238 2.715,0.488 3.949,1.476 -0.396,0.123 -1.23,-0.146 -1.336,0.239 1.082,0.312 2.809,-0.071 3.533,-0.018 1.854,0.139 -0.074,0.111 -0.326,0.186 m -45.144,-13.788 c -0.198,-0.658 0.933,-0.119 0.802,-0.714 0.332,-0.016 0.237,0.445 0.69,0.298 -0.068,0.155 -0.133,0.309 -0.318,0.354 0.064,0.225 0.427,0.117 0.679,0.133 0.086,-0.569 -0.314,-0.598 -0.707,-0.637 0.557,-0.373 -0.201,-1.1 0.444,-1.199 0.101,-0.588 -0.225,-0.699 -0.389,-0.99 -0.484,0.257 -0.639,0.81 -1.123,1.068 0.115,0.547 0.191,0.732 0.062,1.176 -0.283,-0.235 0.02,-0.653 -0.228,-1.166 -0.26,0.086 -0.117,0.535 -0.654,0.369 0.209,0.617 -0.325,0.56 -0.459,0.865 -0.344,-0.164 0.601,-1.244 -0.557,-0.978 0.125,0.697 0.219,1.839 1.758,1.421 m 12.097,9.293 c -0.435,0.088 -0.918,0.135 -1.158,0.399 0.053,0.236 0.291,0.267 0.363,0.486 -1.544,0.676 -1.988,1.803 -4.126,1.561 -0.268,0.345 -0.346,0.859 -0.786,1.05 -0.39,-0.757 -1.107,0.762 -1.459,1.086 0.44,0.159 0.551,-0.752 0.832,-0.211 -0.203,0.35 -0.504,0.612 -0.619,1.043 l 1.006,-0.052 c -0.047,1.125 0.305,1.166 -0.414,1.703 0.078,0.209 0.234,0.332 0.522,0.308 l -0.477,0.532 c -0.285,0.256 -0.377,0.174 -0.355,-0.319 -0.768,0.5 -1.579,-0.377 -2.35,0.123 0.121,0.518 0.988,0.207 1.369,0.434 -0.516,0.389 -1.619,-0.09 -2.357,-0.045 0.33,0.582 0.65,1.172 1.095,1.625 -0.527,-0.246 -1.785,0.125 -2.41,-1.053 -0.566,0.563 -0.603,0.295 -1.158,0.399 l -0.848,-0.125 c 0.508,0.174 0.684,-0.744 0.291,-0.856 -0.142,0.319 -1.951,-0.148 -0.705,-0.636 -0.658,0.341 -2.687,-1.022 -3.004,0.494 1.028,0.14 1.674,-0.375 2.2,0.222 -0.832,0.114 0.084,0.356 0.193,0.495 -1.012,0.05 -2.104,0.507 -1.783,1.269 -0.602,-0.164 -0.496,-1.305 -1.043,-0.617 0.056,-0.531 -0.401,-0.637 -0.053,-1.008 -1.371,-0.674 -3.268,-1.486 -4.15,-2.137 0.437,-0.474 1.607,0.688 2.031,0.229 -0.053,-0.236 -0.291,-0.268 -0.361,-0.485 0.404,-0.24 0.722,0.456 0.837,-0.044 -0.439,-0.282 -0.41,-1.084 -0.91,-1.299 -0.246,0.267 -0.869,1.017 -1.314,0.574 0.697,0.008 0.189,-0.662 0.469,-0.697 0.359,0.517 0.767,-0.252 0.812,-0.547 -0.611,-0.666 -1.101,0.353 -1.687,-0.08 0.687,-0.315 -0.12,-1.037 0.601,-1.379 -0.178,-0.336 -0.873,-0.096 -0.875,-0.627 0.414,0.088 0.881,0.295 0.822,-0.379 -0.416,0.047 -0.701,-0.051 -0.857,-0.291 0.197,-0.037 0.478,0.004 0.494,-0.195 -0.471,-1.118 -0.078,-2.098 0.01,-3.03 0.016,0.221 0.476,0.19 0.504,-0.025 -0.367,-0.762 0.621,-2.291 0.017,-2.863 -0.406,0.265 -0.636,0.441 -1.166,0.23 -0.349,-0.933 0.912,-0.98 0.426,-1.537 0.567,-0.039 0.733,0.266 0.996,-0.221 -0.189,-0.388 -2.06,0.172 -1.693,-0.248 0.527,0.053 0.801,-0.25 0.476,-0.529 0.998,-0.082 1.854,-0.625 2.977,-0.998 -0.266,-0.381 -0.438,-0.354 -0.037,-0.67 -0.131,-0.281 -1.383,-0.219 -1.033,-0.451 0.728,-0.024 1.131,0.295 1.326,-0.406 -0.221,-0.407 -1.07,-0.112 -1.209,-0.61 0.734,-0.326 1.394,0.158 1.66,-0.424 -0.068,-0.339 -0.471,-0.304 -0.539,-0.644 0.838,-0.041 1.109,0.545 2.041,0.398 0.033,-0.451 0.559,-0.299 0.971,-0.724 0.285,0.465 0.465,0.033 0.707,0.636 -0.157,-0.566 0.67,-0.248 0.459,-0.865 -0.592,-0.744 -0.83,-0.791 -1.422,-1.441 1.074,0.347 1.515,1.394 2.615,1.715 -0.111,-0.151 -0.424,-0.598 0.141,-0.512 0.049,0.537 0.408,0.728 0.564,1.148 0.17,-0.787 -0.006,-1.757 -0.935,-1.802 -0.106,-0.52 0.33,-0.555 0.812,-0.547 -0.072,0.789 0.326,1.058 0.582,1.484 -0.131,-0.703 0.152,-1.182 -0.121,-2.35 1.082,0.618 0.863,-1.357 1.633,-0.927 -0.299,0.316 0.017,0.597 0.219,0.998 0.336,-0.02 0.191,-0.469 0.656,-0.371 0.053,0.316 -0.172,0.381 -0.135,0.679 0.463,0.475 0.779,0.002 1.201,0.444 0.707,-0.516 0.164,-1.416 0.24,-1.866 0.04,0.196 0.276,0.17 0.512,0.143 0.246,-1.242 -1.957,-1.953 -0.846,-3.32 0.237,0.506 0.249,1.261 0.75,1.474 0.159,-0.388 0.342,-0.757 0.618,-1.041 0.123,0.563 1.513,-0.285 1.642,-0.759 -0.019,0.318 0.209,0.359 0.203,0.662 -0.638,0.117 -0.783,0.679 -1.121,1.068 -0.092,-0.193 -0.199,-0.371 -0.361,-0.486 -0.822,0.943 -0.596,1.498 0.785,2.146 0.426,-0.064 0.736,-0.929 0.115,-1.015 0.067,0.38 -0.007,0.632 -0.3,0.687 -0.448,-0.451 0.734,-1.205 1.13,-0.898 -0.214,0.521 0.022,1.004 0.247,1.5 -0.465,-0.002 -0.563,0.289 -0.309,0.521 -0.623,0.277 -0.346,-0.443 -0.857,-0.291 0,0.266 -0.098,1.127 -0.061,2.022 0.019,0.517 0.375,2.226 0.035,0.671 -0.443,-0.16 -0.205,-1.076 -0.574,-1.316 0.193,-0.517 0.045,-1.346 0.238,-1.863 -0.23,0.019 -0.373,-0.061 -0.512,-0.141 -0.22,1.143 -1.222,0.598 -0.892,2.233 -0.895,1.058 -0.867,-0.557 -2.014,0.107 -0.015,-0.812 -0.588,-1.006 -1.236,-1.113 0.504,0.968 0.473,2.076 1.307,2.455 0.019,0.01 0.951,-0.883 0.679,0.133 -0.068,0.49 -0.275,-0.245 -0.512,-0.141 -0.367,1.17 0.473,1.449 -0.044,2.357 0.091,-0.558 -0.348,-0.24 -0.336,0.018 0.898,0.297 1.795,1.006 2.703,0.195 -0.033,0.332 0.242,0.321 0.361,0.485 -1.164,0.216 -0.848,0.586 -1.123,1.068 -0.334,-0.221 -2.281,-0.447 -2.322,0.627 0.015,-0.217 1.013,-0.268 0.504,-0.025 -0.289,0.005 -0.424,0.15 -0.487,0.361 0.114,0.344 0.508,0.518 0.213,0.83 0.43,-0.006 0.805,0.053 1.024,0.283 -0.233,0.467 -2.135,-0.549 -1.989,0.61 0.329,-0.381 0.633,-0.106 0.532,0.476 0.404,-0.318 0.765,0.596 1.06,0.955 -0.701,0.055 -0.931,-0.281 -0.715,-0.804 -0.316,0.054 -0.381,-0.17 -0.681,-0.133 0.383,0.64 0.881,1.154 1.271,1.785 -0.976,-0.1 -1.111,-1.133 -1.607,-1.768 0.107,1.371 0.635,2.172 1.855,3.268 -0.336,0.109 -0.537,0.43 -0.293,0.857 -1.228,0.239 -1.5,-0.582 -2.552,-0.539 0.087,0.315 0.384,0.403 0.38,0.823 -0.511,0.033 -0.671,-0.321 -1.033,-0.452 -0.01,1.246 -1.515,-0.47 -1.988,0.608 0.678,0.017 1.537,-0.166 1.705,0.416 -0.855,0.699 0.072,1.429 0.449,2.164 -0.506,0.148 -0.508,-0.264 -1.015,-0.115 -0.221,-0.436 0.269,-1.004 -0.053,-1.006 -0.342,0.064 -0.125,0.633 -0.469,0.697 -0.191,-0.506 -0.437,0.217 -0.66,0.203 0.062,-0.959 -0.326,-1.414 -0.928,-1.635 0.01,0.168 -0.127,0.207 -0.15,0.344 0.422,-0.094 0.82,0.725 0.388,0.99 0.188,-1.197 -0.914,-0.742 -1.369,-0.433 0.032,-0.332 -0.244,-0.321 -0.363,-0.485 0.494,-0.087 0.813,-0.336 0.973,-0.724 -1.11,-0.143 -1.703,-0.94 -2.571,-0.875 0.788,-0.229 -0.697,-0.674 -1.05,-0.787 -0.602,0.759 -0.198,1.547 -0.221,2.199 0.367,0.119 2.492,0.338 2.004,-0.274 0.533,-0.234 0.156,0.538 0.689,0.301 -0.312,0.567 -1.021,1.369 -0.584,1.713 2.119,0.277 5.178,0.192 7.235,-0.041 0.168,0.834 -0.631,-0.191 -0.655,0.369 1.069,1.008 1.948,-0.312 3.17,-0.502 -0.154,0.713 -1.304,0.53 -1.625,1.094 1.155,-0.129 0.7,-0.201 1.194,0.273 1.148,-0.457 2.031,-1.154 3.109,-1.675 0.092,-0.637 -0.66,-0.332 -0.715,-0.805 0.504,-0.26 1.026,-0.826 0.442,-1.201 0.552,-0.297 0.752,0.676 1.015,0.115 -0.133,-0.029 -0.332,0.014 -0.344,-0.148 0.307,-0.311 1.387,0.076 1.139,-0.735 0.947,0.295 1.578,-0.724 1.944,-1.447 0.56,0.355 1.367,-0.119 2.535,0.203 0.004,0.233 0.097,0.365 0.193,0.494 -0.602,0.045 -0.492,0.729 -0.432,1.369 m 32.459,28.006 c 0.659,0.071 0.957,0.18 0,0 m 11.284,3.626 c 0.73,0.677 1.466,2.064 2.296,2.066 -0.183,0.264 -0.464,0.437 -0.46,0.866 0.425,0.179 0.685,0.54 0.892,0.963 -1.09,-0.88 -2.832,0.044 -3.365,0.008 0.299,-0.315 0.754,-0.493 0.963,-0.892 -0.319,-0.001 -0.147,-0.548 -0.53,-0.476 -1.988,-0.278 -0.47,-0.024 0.485,-0.363 -0.617,-0.301 -0.977,-0.754 -0.211,-0.829 -0.875,-0.394 -2.504,-0.888 -2.606,-1.546 0.862,0.523 1.668,1.107 2.924,1.193 -0.125,-0.234 -0.806,-1.286 -0.388,-0.99 m -4.34,-5.427 c -1.035,0.721 -2.836,0.75 -3.791,1.545 0.07,0.084 0.828,0.205 0.355,0.317 -0.496,-0.141 -1.316,-0.541 -1.336,0.238 -0.461,-0.078 -0.802,-0.291 -1.041,-0.617 0.457,0.092 0.305,-0.363 0.477,-0.531 -0.528,-0.389 -2.264,-0.182 -2.844,0.318 0.277,0.4 0.59,0.404 0.865,0.459 0.141,0.029 0.262,0.053 0.371,0.072 -0.302,-0.031 -0.677,-0.054 -1.043,-0.037 -0.599,0.029 -1.132,0.418 -1.492,0.414 -0.502,-0.502 -4.234,0.188 -1.359,-0.263 0.355,-0.274 0.435,-1.137 -0.07,-1.344 -3.444,-0.949 -7.383,-0.522 -10.008,-1.494 -0.905,-0.336 0.406,0.031 0.15,-0.344 -0.244,-0.358 -2.453,-1.426 -2.93,-1.361 -0.252,-0.381 -0.916,-1.223 -1.386,-0.768 0.166,0.584 1.045,0.375 1.068,1.121 -0.465,0.492 -0.465,-0.527 -1.193,-0.273 -0.276,0.675 0.718,0.836 0.23,1.166 -0.365,-0.481 -0.627,-0.547 -1.043,-0.619 -0.533,-0.536 -0.562,-2.567 -1.457,-2.112 0.281,0.287 0.66,1.387 0.266,1.836 -0.852,-1.246 -0.709,-3.594 -2.553,-3.736 0.602,-0.018 0.984,0.211 1.529,0.258 -0.066,-0.461 -0.644,-0.35 -0.875,-0.629 0.405,-0.239 0.834,0.332 0.838,-0.043 -0.115,-1.057 -1.552,-0.643 -1.924,-1.414 0.936,0.086 1.289,0.816 2.393,0.716 -0.293,-0.693 1.266,-0.951 1.422,-1.757 -0.76,-0.873 -2.764,-0.364 -3.752,-0.981 1.959,-0.318 3.346,0.604 4.514,-0.572 0.045,0.9 1.568,1.092 2.066,0.9 -0.125,-0.291 -0.873,-0.789 -0.398,-1.156 0.08,0.207 0.234,0.332 0.521,0.309 -0.025,-0.651 0.988,-1.067 1.246,-1.916 -0.197,0.058 -0.598,0.709 -0.83,0.211 0.504,-0.346 0.92,-0.77 1.104,-1.405 -1.854,0.731 -3.651,1.512 -5.079,2.623 -0.056,0.536 0.836,0.018 0.706,0.637 -0.129,0.043 -0.331,0.022 -0.327,0.186 -0.67,0.15 -0.449,-0.688 -1.041,-0.621 -0.289,0.179 -0.968,0.822 -1.326,0.406 0.481,-0.418 1.422,-0.422 1.625,-1.094 l 0.504,-0.027 c 1.471,-0.885 3.768,-1.795 4.744,-2.604 0.037,-0.471 -0.693,-0.986 -0.238,-1.334 0.18,0.215 0.191,0.617 0.537,0.645 0.357,-0.264 -0.168,-1.323 0.434,-1.367 -0.108,0.759 -0.399,1.472 0.105,2.011 0.719,-0.31 1.041,-0.98 1.785,-1.269 -0.066,0.791 -1.109,0.707 -1.095,1.57 1.168,0.908 2.408,0.035 3.398,0.664 -0.752,0.268 -1.732,0.219 -1.465,0.918 0.373,-0.275 0.906,-0.598 0.858,0.291 -0.864,-0.111 -2.258,-0.566 -2.721,-0.529 0.41,0.23 0.396,0.482 0.537,0.644 0.189,-0.224 0.633,-0.105 0.85,0.123 -0.25,0.043 -0.623,-0.027 -0.663,0.203 -0.007,0.19 0.256,0.249 0.016,0.336 -0.666,-0.382 -0.965,-1.177 -1.598,-1.599 -0.72,0.578 -1.087,1.472 -1.564,2.269 0.924,-0.131 1.455,-1.457 2.299,-1.129 -0.365,0.192 -0.703,0.69 -1.449,1.254 0.541,0.008 0.693,-0.334 1.334,-0.238 -0.133,0.734 -1.34,0.5 -1.803,0.936 0.467,0.183 0.625,0.431 0.707,0.636 2.656,-0.033 4.369,-1.236 6.625,-2.031 -0.078,-0.389 -0.211,-0.713 -0.549,-0.812 -0.387,-0.102 -1.293,0.371 -1.191,-0.274 0.394,-0.123 1.228,0.147 1.332,-0.238 -0.239,-0.498 0,-0.703 0.283,-1.026 -0.008,1.11 0.508,0.534 0.9,1.131 0.11,0.526 -0.271,0.61 -0.105,1.184 1.055,-0.385 2.363,-1.387 3.295,-1.35 -0.637,0.6 -1.762,0.76 -2.28,1.465 0.321,0.059 0.998,-0.281 0.858,0.291 -0.51,0.25 -0.959,-0.447 -1.176,0.063 1.736,1.215 5.213,0.107 6.703,-0.52 -0.59,-1.351 0.932,-3.676 -0.572,-4.514 1.187,0.471 2,0.186 2.473,-0.97 0.003,0.715 -1.082,1.726 -0.221,2.199 0.219,-0.283 0.098,-0.873 0.451,-1.033 0.277,0.584 -0.486,1.033 -0.107,1.183 0.482,0.01 0.951,-0.328 1.697,0.248 -0.219,-0.482 -0.133,-0.619 0.291,-0.857 0.475,0.412 -0.178,0.518 -0.115,1.016 0.83,0.05 1.662,-0.735 2.164,-0.45 -0.11,0.274 -0.824,0.006 -0.645,0.538 -0.435,-0.106 -0.785,-0.206 -0.998,0.22 0.531,0.059 0.664,-0.429 0.848,0.125 -0.43,0.041 -0.795,0.137 -0.99,0.389 0.712,0.207 -0.057,0.904 0.22,0.998 0.205,-0.242 0.721,-0.205 1.166,-0.231 -0.424,0.534 -1.666,1.084 -2.515,0.854 0.295,0.014 0.291,-0.627 0.007,-0.553 -0.539,0.42 -0.994,0.916 -1.439,1.422 2.273,0.211 3.195,-1.445 4.707,-0.078 -0.369,-0.076 -1.396,-0.33 -1.678,0.088 0.09,0.373 0.918,-0.074 0.866,0.459 -0.834,0.088 -2.053,-0.86 -2.526,-0.037 0.949,0.306 1.928,0.582 2.904,0.857 -0.498,0.44 0.09,0.86 -0.265,1.36 -0.236,0.15 -0.828,-1.006 -1.209,-0.61 0.035,0.317 0.56,0.088 0.529,0.479 -0.943,-0.569 -2.543,-0.655 -2.172,0.281 -0.318,-0.307 -0.967,-1.166 -1.386,-0.77 0.39,0.727 0.767,0.418 1.076,1.291 -0.674,-0.019 -1.858,-2.443 -3.153,-2.359 -0.462,0.031 -1.949,0.936 -0.785,1.053 -0.293,0.06 -0.863,-0.43 -1.008,0.051 -0.173,0.511 1.225,0.152 0.7,0.468 -1.43,0.106 -1.998,-0.742 -3.243,-0.84 0.049,0.209 0.278,0.331 -0.15,0.344 -0.492,-0.451 -0.924,-0.513 -1.209,-0.609 -0.953,-0.32 -0.564,0.301 -1.228,-0.945 0.072,0.136 -0.399,-0.5 -0.539,-0.645 -0.797,0.455 -1.702,0.814 -2.456,1.307 0.131,0.031 0.331,-0.012 0.346,0.15 -0.256,0.305 -0.476,0.637 -1.15,0.564 0.027,-0.384 -0.073,-0.628 -0.371,-0.652 -0.313,0.463 -1.397,0.233 -1.465,0.918 0.351,0.082 1.092,-0.266 1.183,0.106 -0.63,0.259 -1.535,-0.082 -2.164,0.449 0.414,0.074 0.391,0.633 1.034,0.451 0.656,-0.174 2.732,-0.885 3.337,-0.512 -0.289,0.114 -0.996,-0.15 -0.998,0.221 1.254,1.131 3.094,1.879 4.913,0.584 -0.354,0.787 -2.45,1.402 -1.741,2.111 -1.56,-0.117 -2.14,1.455 -3.994,0.881 0.006,0.233 0.1,0.365 0.195,0.496 -0.511,0.153 -0.347,-0.443 -0.857,-0.293 0.008,0.17 -0.125,0.209 -0.15,0.346 0.066,0.34 0.47,0.305 0.539,0.644 -0.455,0.44 -1.918,0.18 -1.483,0.583 -0.232,0.019 -0.375,-0.059 -0.513,-0.141 -0.58,-0.151 0.464,-0.076 0.14,-0.514 -0.201,-0.129 -0.461,-0.197 -0.847,-0.123 1.402,2.988 7.039,2.686 11.109,3.289 0.371,-2.242 5.184,-0.144 5.213,-3.303 -1.063,0.467 -2.574,1.1 -3.596,2.04 0.024,-0.776 0.817,-0.752 -0.06,-1.174 1.558,-0.907 3.552,-0.852 4.787,-1.766 0.246,1.447 -0.633,1.883 -0.682,3.065 0.199,0.015 0.475,-0.055 0.514,0.14 -0.223,0.387 -0.416,0.801 -0.612,1.211 1.893,0.772 3.86,-0.408 5.028,-0.432" /></g><g
           transform="translate(120.4053,95.2625)"
           id="g28"><path
             id="path30"
             style="fill:#ce088d;fill-opacity:1;fill-rule:evenodd;stroke:none"
             d="m 0,0 c 0.9,-0.867 0.451,-2.406 0.141,-3.709 0.716,0.686 0.914,1.945 1.492,2.781 0.435,-0.353 0.894,-0.685 0.937,-1.394 0.616,-0.211 0.299,0.615 0.866,0.459 -0.438,-1.291 -1.02,-2.42 -1.854,-3.27 -0.914,0.684 -1.877,1.391 -3.305,1.184 -0.513,0.892 -1.304,2.314 -0.644,3.736 0.347,-0.432 0.791,-0.779 0.937,-1.394 0.489,0.201 0.516,0.916 0.405,1.324 C -0.791,-0.807 0.133,-1.154 0,0" /></g><g
           transform="translate(115.001,91.6746)"
           id="g32"><path
             id="path34"
             style="fill:#ce088d;fill-opacity:1;fill-rule:evenodd;stroke:none"
             d="M 0,0 C 1.018,0.486 1.641,-0.756 2.648,-0.811 2.383,-1.91 0.967,-0.75 0.273,-1.191 0.385,-1.039 0.695,-0.594 0.131,-0.68 0.498,-0.559 0.57,-0.066 0,0" /></g><g
           transform="translate(116.5908,89.909)"
           id="g36"><path
             id="path38"
             style="fill:#ce088d;fill-opacity:1;fill-rule:evenodd;stroke:none"
             d="m 0,0 c -0.309,-0.369 -1.285,0.006 -1.855,-0.072 0.156,-0.287 0.703,-0.219 0.99,-0.387 -0.147,-0.666 -1.106,-0.43 -1.873,-0.406 -0.268,0.441 0.291,0.636 -0.301,0.687 C -2.457,0.346 -0.904,0.383 0,0" /></g><g
           transform="translate(115.876,79.5144)"
           id="g40"><path
             id="path42"
             style="fill:#ce088d;fill-opacity:1;fill-rule:evenodd;stroke:none"
             d="m 0,0 c -0.197,-0.693 -0.084,-0.937 -0.58,-1.484 -0.627,0.076 -0.332,0.982 -1.131,0.9 C -1.004,-0.541 -0.678,-0.078 0,0" /></g><g
           transform="translate(116.2041,79.3289)"
           id="g44"><path
             id="path46"
             style="fill:#ce088d;fill-opacity:1;fill-rule:evenodd;stroke:none"
             d="M 0,0 C 0.566,-0.154 -0.037,-1.016 0.248,-1.695 -0.959,-1.736 -0.109,-0.531 0,0" /></g><g
           transform="translate(115.7705,77.5008)"
           id="g48"><path
             id="path50"
             style="fill:#ce088d;fill-opacity:1;fill-rule:evenodd;stroke:none"
             d="M 0,0 C 0.133,-0.096 0.264,-0.189 0.496,-0.195 L 0.426,-1.537 C 0.279,-1.836 0.25,-1.428 0.275,-1.193 0.254,-1 0.111,-1.09 0.107,-1.184 -0.264,-1.092 0.084,-0.354 0,0" /></g><g
           transform="translate(126.7998,88.868)"
           id="g52"><path
             id="path54"
             style="fill:#ce088d;fill-opacity:1;fill-rule:evenodd;stroke:none"
             d="m 0,0 c 0.26,0.187 0.758,0.107 0.707,0.639 -0.904,0.58 -1.91,-0.08 -2.703,-0.196 0.437,0.698 1.416,0.795 1.607,1.766 C -0.967,2.168 -0.865,2.738 -1.193,2.924 -1.809,2.721 -1.902,1.936 -2.596,1.82 -2.607,2.543 -1.777,2.33 -1.695,2.951 -2.582,2.928 -3.832,1.773 -4.494,0.91 c 1.027,0.113 0.539,-0.519 0.131,-0.68 0.545,-0.043 1.029,-0.14 1.326,-0.406 -0.246,-0.806 0.334,-0.871 0.433,-1.369 -0.398,-1.883 -2.376,-1.687 -3.568,-0.654 0.131,0.031 0.33,-0.012 0.346,0.15 -0.553,0.287 -0.688,0.604 -1.494,0.414 0.351,0.744 -0.588,0.324 -0.637,0.707 0.029,0.264 0.434,0.11 0.361,0.485 -0.396,-0.1 -1.275,-0.358 -1.156,0.398 -0.686,-0.123 -1.643,-1.445 -2.215,-0.557 0.705,0.166 1.975,0.641 1.428,1.608 -0.785,-0.725 -1.895,-1.09 -2.94,-1.529 -0.177,-0.987 0.469,-0.756 -0.07,-1.342 0.783,0.238 0.486,-0.842 0.283,-1.024 0.286,-0.082 0.444,0.227 0.504,-0.027 -0.019,-1.223 -1.136,-1.227 -1.299,-2.287 0.84,-0.045 0.657,1.047 1.405,1.103 -0.18,-0.334 -0.379,-0.644 -0.557,-0.98 0.233,-0.02 0.373,0.06 0.512,0.141 -0.02,-0.332 -0.469,-0.188 -0.369,-0.653 0.302,-0.176 0.586,0.473 0.67,-0.035 -0.286,-0.394 -0.704,-0.639 -1.377,-0.602 -0.114,-0.736 0.783,-0.57 1.095,-0.3 -0.214,-0.252 0.03,-0.383 0.028,-0.768 -0.215,0.022 -0.223,0.229 -0.496,0.195 0.035,-0.449 0.41,-0.589 0.802,-0.716 0.358,0.67 0.772,1.275 1.274,1.785 -0.522,-0.865 -0.303,-1.635 -0.955,-2.137 0.3,0.08 0.976,-0.254 1.017,0.115 -0.049,0.545 1.123,1.969 1.826,2.764 -0.503,-1.037 -0.707,-2.41 -1.507,-3.119 0.484,-0.539 0.431,-1.567 0.388,-2.205 -0.119,-1.75 0,-0.135 -0.009,-0.17 0.335,1.385 0.541,1.683 1.146,2.633 -0.33,-1.116 -1.078,-2.707 -0.713,-4 0.313,0.201 -0.314,1.084 0.557,0.978 0.322,-0.654 -0.235,-0.92 -0.258,-1.668 0.816,0.201 0.381,-0.724 0.443,-1.201 l 1.008,-0.053 c 0.387,0.709 0.613,3.869 1.551,3.957 0.086,1.385 0.56,2.338 0.857,3.489 -0.078,-1.082 -0.076,-2.094 0.186,-2.87 0.076,0.565 0.318,0.95 0.256,1.668 0.765,-0.578 0.045,0.391 0.699,0.469 0.584,-0.221 0.225,-1.289 1.287,-1.076 -0.117,0.529 -0.631,1.397 0.408,1.324 0.346,-0.338 0.346,-0.873 0.979,-0.556 -0.219,0.783 0.49,0.796 0.592,1.652 0.293,-0.002 0.521,-0.065 0.662,-0.203 -0.162,0.535 0.072,0.441 -0.123,0.847 0.736,0.065 0.265,0.536 1.033,0.45 C 0.711,-4.867 0.9,-3.65 1.326,-3.602 1.174,-3.258 0.723,-3.186 0.521,-2.887 1.094,-2.928 1.691,-3 1.883,-2.621 1.447,-2.268 1.182,-1.76 0.945,-1.227 1.793,-1.486 1.148,-0.746 1.477,-0.75 1.914,-0.984 3.352,-1.992 3.48,-1.023 2.248,-0.654 0.803,-0.975 0,0" /></g><g
           transform="translate(15.8994,29.3269)"
           id="g56"><path
             id="path58"
             style="fill:#45c0ad;fill-opacity:1;fill-rule:nonzero;stroke:none"
             d="m 0,0 c -0.525,0.768 -0.937,1.684 -1.225,2.721 -0.289,1.037 -0.435,2.193 -0.435,3.435 0,2.5 0.379,4.713 1.127,6.576 0.746,1.864 1.732,3.44 2.929,4.682 1.2,1.244 2.571,2.191 4.077,2.813 1.506,0.621 3.037,0.937 4.55,0.937 1.065,0 2.006,-0.102 2.799,-0.299 0.797,-0.199 1.5,-0.455 2.096,-0.763 0,0 0.027,-0.012 0.049,-0.024 C 15.928,19.869 13.445,6.197 13.445,6.197 13.246,5.025 12.867,3.902 12.316,2.855 11.768,1.809 11.086,0.881 10.293,0.096 9.498,-0.689 8.588,-1.326 7.586,-1.795 6.58,-2.266 5.494,-2.504 4.354,-2.504 3.48,-2.504 2.66,-2.277 1.912,-1.832 1.168,-1.387 0.525,-0.771 0,0 m 4.207,22.469 v 0 C 1.842,21.443 -0.129,20.059 -1.654,18.355 -3.182,16.652 -4.324,14.656 -5.057,12.426 -5.789,10.193 -6.16,7.82 -6.16,5.373 c 0,-1.908 0.265,-3.584 0.791,-4.984 0.527,-1.397 1.23,-2.58 2.092,-3.514 0.863,-0.932 1.881,-1.641 3.027,-2.102 1.146,-0.462 2.369,-0.697 3.631,-0.697 0.928,0 1.846,0.09 2.726,0.27 0.881,0.177 1.729,0.484 2.52,0.91 0.791,0.428 1.545,1 2.238,1.703 0.67,0.68 1.309,1.562 1.897,2.619 0.072,-0.025 0.109,-0.037 0.181,-0.062 -0.08,-0.53 -0.138,-1.041 -0.172,-1.52 0,-0.006 -0.054,-1.502 -0.054,-1.502 0,-0.014 0.013,-1.041 0.013,-1.041 0,-0.004 0.04,-0.918 0.04,-0.918 l 4.058,0.002 -0.123,0.908 c -0.037,0.348 -0.055,0.772 -0.055,1.26 0,0.607 0.024,1.305 0.067,2.07 0,-0.004 0.191,2.342 0.191,2.342 -0.002,-0.006 0.283,2.352 0.283,2.352 0,-0.004 0.325,2.135 0.325,2.135 l 3.148,17.38 -0.127,0.036 c -0.385,0.109 -0.887,0.218 -1.49,0.322 -0.725,0.125 -1.492,0.238 -2.279,0.338 -0.002,0 -2.289,0.242 -2.289,0.242 -0.737,0.062 -1.325,0.094 -1.752,0.094 -3.289,0 -6.155,-0.52 -8.52,-1.547" /></g><g
           transform="translate(49.3604,47.8094)"
           id="g60"><path
             id="path62"
             style="fill:#45c0ad;fill-opacity:1;fill-rule:nonzero;stroke:none"
             d="M 0,0 C 0.754,0.377 1.449,0.699 2.07,0.961 2.693,1.223 3.318,1.432 3.932,1.586 4.543,1.738 5.187,1.852 5.846,1.924 6.5,1.996 7.254,2.033 8.08,2.033 c 1.266,0 2.326,-0.193 3.15,-0.574 0.827,-0.381 1.497,-0.92 1.987,-1.604 0.488,-0.679 0.834,-1.492 1.025,-2.418 0.188,-0.917 0.285,-1.949 0.285,-3.066 0,-1.133 -0.095,-2.308 -0.285,-3.494 -0.189,-1.188 -0.486,-2.359 -0.883,-3.482 -0.392,-1.124 -0.89,-2.196 -1.476,-3.188 -0.586,-0.992 -1.289,-1.873 -2.092,-2.621 -0.803,-0.75 -1.719,-1.35 -2.721,-1.783 -1.004,-0.434 -2.136,-0.655 -3.365,-0.655 -0.486,0 -1.012,0.034 -1.56,0.096 -0.551,0.063 -1.131,0.186 -1.729,0.367 -0.596,0.18 -1.203,0.438 -1.809,0.762 -0.605,0.324 -1.205,0.756 -1.783,1.279 0,0 -0.015,0.016 -0.029,0.026 0.025,0.156 3.146,18.162 3.174,18.306 C -0.02,-0.008 0,0 0,0 m 4.631,4.834 v 0 C 3.049,4.369 1.568,3.754 0.23,3.004 c 0,0 -0.052,-0.029 -0.111,-0.063 0.01,0.344 0.029,1.149 0.029,1.149 v 0.984 h -3.666 l -0.05,-0.937 c 0,0.006 -0.135,-1.323 -0.135,-1.323 0,0.002 -0.162,-1.23 -0.162,-1.23 L -4.006,0.82 c -0.025,-0.156 -5.801,-33.5 -6.379,-36.832 l -0.029,-0.168 h 4.121 c 0,0 2.498,14.096 2.574,14.526 0.041,-0.03 0.092,-0.065 0.092,-0.065 0.68,-0.463 1.326,-0.867 1.926,-1.197 0.597,-0.33 1.203,-0.609 1.801,-0.832 0.593,-0.223 1.22,-0.391 1.863,-0.496 0.641,-0.108 1.363,-0.162 2.148,-0.162 2.246,0 4.305,0.525 6.121,1.556 1.819,1.036 3.387,2.455 4.663,4.221 1.277,1.768 2.277,3.854 2.974,6.203 0.695,2.348 1.049,4.864 1.049,7.473 0,1.48 -0.176,2.879 -0.523,4.152 C 18.047,0.471 17.494,1.59 16.748,2.523 16.002,3.455 15.033,4.197 13.869,4.73 12.707,5.264 11.295,5.533 9.674,5.533 7.906,5.533 6.209,5.299 4.631,4.834" /></g><g
           transform="translate(79.6143,43.3719)"
           id="g64"><path
             id="path66"
             style="fill:#45c0ad;fill-opacity:1;fill-rule:nonzero;stroke:none"
             d="m 0,0 c 0.531,1.225 1.225,2.348 2.064,3.34 0.838,0.992 1.832,1.81 2.95,2.433 1.121,0.623 2.406,0.94 3.816,0.94 1.629,0 2.889,-0.336 3.744,-1 0.862,-0.668 1.297,-1.656 1.297,-2.934 0,-0.91 -0.217,-1.713 -0.644,-2.388 C 12.799,-0.281 12.205,-0.861 11.463,-1.332 10.721,-1.803 9.848,-2.195 8.865,-2.502 7.887,-2.809 6.834,-3.055 5.736,-3.234 4.641,-3.414 3.492,-3.541 2.326,-3.613 1.162,-3.684 0.016,-3.73 -1.08,-3.748 c 0,0 -0.049,0 -0.088,-0.002 0.006,0.039 0.016,0.088 0.016,0.088 C -0.92,-2.457 -0.531,-1.225 0,0 m 3.045,8.428 v 0 C 1.162,7.402 -0.471,6.01 -1.807,4.287 -3.146,2.564 -4.199,0.551 -4.941,-1.699 c -0.743,-2.252 -1.118,-4.643 -1.118,-7.108 0,-1.552 0.221,-3.039 0.659,-4.42 0.437,-1.38 1.093,-2.584 1.957,-3.58 0.861,-0.994 1.957,-1.779 3.254,-2.33 1.3,-0.552 2.835,-0.832 4.564,-0.832 2.43,0 4.652,0.326 6.607,0.969 1.873,0.615 3.596,1.51 5.123,2.656 l 0.106,0.08 -1.789,2.903 -0.123,-0.082 c -0.592,-0.389 -1.215,-0.76 -1.856,-1.1 -0.748,-0.395 -1.548,-0.746 -2.386,-1.043 -0.84,-0.297 -1.725,-0.539 -2.631,-0.719 -0.908,-0.179 -1.844,-0.271 -2.781,-0.271 -1.106,0 -2.071,0.207 -2.87,0.617 -0.798,0.408 -1.466,1.006 -1.986,1.779 -0.516,0.77 -0.9,1.713 -1.144,2.805 -0.243,1.09 -0.366,2.281 -0.366,3.541 v 0.27 c 0,-0.004 0.014,0.544 0.014,0.544 0.01,0.219 0.041,0.459 0.096,0.713 0,0 0.006,0.026 0.011,0.057 h 0.059 c 1.482,0.018 3.023,0.078 4.574,0.176 1.547,0.099 3.067,0.275 4.516,0.525 1.447,0.25 2.826,0.6 4.094,1.037 1.265,0.438 2.384,1.01 3.33,1.705 0.939,0.692 1.697,1.543 2.246,2.53 0.549,0.982 0.828,2.166 0.828,3.515 0,2.162 -0.762,3.842 -2.268,4.992 -1.509,1.155 -3.685,1.741 -6.463,1.741 -2.281,0 -4.39,-0.52 -6.271,-1.543" /></g><g
           transform="translate(112.1006,72.6355)"
           id="g68"><path
             id="path70"
             style="fill:#45c0ad;fill-opacity:1;fill-rule:nonzero;stroke:none"
             d="m 0,0 c -0.199,-0.457 -0.199,-0.457 -0.527,-0.504 l -0.328,-0.053 -0.026,-0.088 c -0.068,-0.24 -0.09,-0.48 -0.09,-0.718 0,-0.198 0.014,-0.391 0.028,-0.582 0.007,-0.094 0.009,-0.188 0.013,-0.284 -0.009,0.004 -0.015,0.012 -0.025,0.014 l -0.44,0.129 0.284,-0.357 c 0.041,-0.053 0.082,-0.118 0.049,-0.145 -0.09,-0.074 -0.319,-0.051 -0.35,-0.027 l 0.017,0.031 -0.228,0.178 c -0.367,-0.473 -0.404,-0.996 -0.441,-1.502 -0.02,-0.279 -0.041,-0.549 -0.12,-0.801 -0.021,0.012 -0.052,0.027 -0.052,0.027 -0.164,0.088 -0.334,0.057 -0.455,-0.08 -0.211,-0.242 -0.243,-0.799 -0.055,-1.062 0.094,-0.133 0.236,-0.178 0.391,-0.139 0.07,-0.016 0.128,-0.004 0.179,0.02 -0.064,-0.264 -0.168,-0.463 -0.248,-0.489 -0.025,-0.007 -0.088,0.037 -0.162,0.192 l -0.277,-0.074 c 0.08,-1.032 -0.198,-1.778 -0.514,-1.983 -0.125,-0.082 -0.252,-0.084 -0.393,-0.006 l -0.14,0.076 -0.063,-0.148 c -0.05,-0.117 -0.07,-0.213 -0.07,-0.293 0,-0.197 0.125,-0.297 0.25,-0.377 0.022,-0.014 0.035,-0.023 0.049,-0.035 L -3.75,-9.078 C -7.676,-22.035 -9.83,-37.27 -9.98,-53.129 v -0.146 h 4.119 l -0.004,0.146 c -0.018,0.983 -0.03,1.967 -0.03,2.951 0,16.11 2.569,32.643 7.305,46.885 0.178,-0.004 0.381,-0.006 0.5,0.133 0.053,0.062 0.08,0.144 0.08,0.242 0,0.025 -0.002,0.051 -0.006,0.078 0.02,0.164 0.03,0.32 0.03,0.467 0,1.49 -0.959,2.092 -1.825,2.449 L 0.057,0.131 Z" /></g></g></g></g></svg>