<svg xmlns="http://www.w3.org/2000/svg" xmlns:xlink="http://www.w3.org/1999/xlink" version="1.1" x="0px" y="0px" viewBox="0 0 24 24" style="enable-background:new 0 0 24 24;" xml:space="preserve"><g><path d="M5.996,21.544h11.7c0.613,0,1.539-0.491,1.539-1.232V3.687c0-0.679-0.552-1.232-1.232-1.232H9.691   c-0.361,0-0.692,0.255-0.906,0.469L5.207,6.504C4.914,6.797,4.765,7.092,4.765,7.382v12.931   C4.765,20.992,5.317,21.544,5.996,21.544z M9.075,3.506V6.15c0,0.345-0.271,0.616-0.616,0.616H5.815L9.075,3.506z M5.381,7.382   h3.079c0.679,0,1.232-0.552,1.232-1.232V3.071h8.313c0.345,0,0.616,0.27,0.616,0.616v16.626c0,0.297-0.542,0.616-0.924,0.616h-11.7   c-0.345,0-0.616-0.27-0.616-0.616V7.382z"></path><path d="M7.844,9.845h8.313c0.17,0,0.308-0.138,0.308-0.308c0-0.17-0.138-0.308-0.308-0.308H7.844c-0.17,0-0.308,0.138-0.308,0.308   C7.536,9.707,7.673,9.845,7.844,9.845z"></path><path d="M7.844,12.924h8.313c0.17,0,0.308-0.138,0.308-0.308s-0.138-0.308-0.308-0.308H7.844c-0.17,0-0.308,0.138-0.308,0.308   S7.673,12.924,7.844,12.924z"></path><path d="M7.844,15.695h8.313c0.17,0,0.308-0.138,0.308-0.308s-0.138-0.308-0.308-0.308H7.844c-0.17,0-0.308,0.138-0.308,0.308   S7.673,15.695,7.844,15.695z"></path><path d="M7.803,18.773h8.246c0.17,0,0.308-0.138,0.308-0.308s-0.138-0.308-0.308-0.308H7.803c-0.17,0-0.308,0.138-0.308,0.308   S7.633,18.773,7.803,18.773z"></path></g></svg>